# xmcd
#
# Track frame offsets:
#	150
#	11583
#	28780
#	39584
#	69229
#	91060
#	113230
#	145331
#	181061
#	199575
#	223458
#	267897
#	304012
#
# Disc length: 4553 seconds
#
# Revision: 0
# Processed by: cddbd v1.4PL0 Copyright (c) Steve Scherf et al.
# Submitted via: EasyCDDAExtractor 4.6.0.1
#
DISCID=b211c70d
DTITLE=Santana - Travellin' Blues
DYEAR=1900
DGENRE=Blues
TTITLE0=Acapulco Sunrise
TTITLE1=As the years go passing by
TTITLE2=Coconut Grove
TTITLE3=Let's Get Ourselves Together
TTITLE4=Travellin' Blues
TTITLE5=Soul Sacrifice
TTITLE6=Every Day I Have The Blues
TTITLE7=Jam in G Minor
TTITLE8=With A Little Help From My Friends
TTITLE9=Persuasion
TTITLE10=Jingo
TTITLE11=Hot Tamales
TTITLE12=Jammin' Home
EXTD=
EXTT0=
EXTT1=
EXTT2=
EXTT3=
EXTT4=
EXTT5=
EXTT6=
EXTT7=
EXTT8=
EXTT9=
EXTT10=
EXTT11=
EXTT12=
PLAYORDER=
